<svg width="254" height="166" viewBox="0 0 254 166" fill="none" xmlns="http://www.w3.org/2000/svg">
<mask id="mask0_54_9450" style="mask-type:luminance" maskUnits="userSpaceOnUse" x="0" y="0" width="254" height="166">
<path d="M0 0H253.386V165.379H0V0Z" fill="white"/>
</mask>
<g mask="url(#mask0_54_9450)">
<path d="M244.105 1.9319C236.817 -1.16452 228.436 1.42521 221.548 4.33482C214.892 7.14718 208.627 10.8271 202.91 15.2286C196.31 20.3133 190.351 26.414 185.482 33.2569C183.795 31.8903 182.047 30.6236 180.263 29.4772C166.565 20.6844 149.731 18.8393 133.925 21.8155C107.085 26.8747 84.7186 44.8415 71.3989 68.0595C69.5093 67.7806 67.6095 67.5733 65.7044 67.4428C49.1737 66.3066 32.6019 70.4548 17.8193 77.6789C11.4076 80.8137 3.71035 84.5831 1.07006 91.6998C-0.82467 96.805 0.687005 102.965 5.95987 104.886C6.82883 105.24 7.78776 105.444 8.81097 105.462C13.1018 105.716 17.7268 103.471 18.7525 99.0518C19.966 93.8238 15.5775 88.1453 10.3304 87.4876C6.40463 86.9937 3.31187 89.4734 1.85418 92.7771C2.04186 92.1629 2.26809 91.5693 2.53289 91.0037C5.57424 84.5243 13.2329 81.0568 19.3696 78.1318C32.8949 71.6805 47.8909 67.883 62.951 68.3845C65.5733 68.4715 68.2059 68.7095 70.8179 69.0883C69.1211 72.1258 67.576 75.2504 66.2006 78.444C60.4573 91.7561 56.9403 106.422 57.583 120.967C58.1641 134.21 62.4523 147.837 72.6304 156.906C78.0472 161.735 85.058 165.11 92.421 165.251C99.46 165.384 106.126 162.354 111.379 157.827C122.292 148.426 126.722 133.409 125.328 119.417C123.904 105.089 116.651 92.1118 105.556 82.9351C96.1642 75.1685 84.6158 70.2142 72.5918 68.2412C81.4716 52.841 94.2206 39.7824 110.235 31.3146C122.863 24.633 137.293 20.8891 151.644 21.6415C163.848 22.2787 175.473 26.5446 184.857 34.1628C181.204 39.4471 178.206 45.1563 176.064 51.1751C173.55 58.2329 172.087 66.1172 173.164 73.5973C174.031 79.6237 177.126 85.9394 183.443 87.7435C188.95 89.3173 195.019 86.9937 199.009 83.1475C204.174 78.1626 205.329 70.6134 204.293 63.7937C202.534 52.2346 195.392 41.6095 186.363 33.9887C192.85 24.8249 201.236 16.9917 210.818 11.0932C216.625 7.51824 222.993 4.37576 229.626 2.65866C235.462 1.14628 242.151 1.13604 246.869 4.86965C242.156 2.97598 236.076 4.90036 233.891 9.6627C231.58 14.7065 234.254 21.4137 239.616 23.182C244.9 24.9247 251.265 21.6364 252.525 16.1805C253.893 10.2334 249.445 4.19663 244.115 1.9319H244.105ZM3.64094 91.6844C7.29415 86.2874 14.616 88.6238 17.0789 93.8749C17.4851 94.7476 17.7191 95.6023 17.8013 96.4288C17.8013 96.4365 17.8013 96.4416 17.8013 96.4493C17.7936 100.887 13.4231 104.357 9.10148 104.4C7.78776 104.344 6.47147 104.024 5.31201 103.42C1.44027 101.094 1.20632 95.285 3.64094 91.6844ZM122.814 111.512C126.081 124.151 124.662 138.233 117.4 149.293C113.821 154.741 108.785 159.422 102.753 162.052C96.1642 164.931 88.8372 164.737 82.2712 161.873C70.4246 156.704 63.1207 145.101 60.2696 132.938C57.3877 120.658 58.4289 107.737 61.5011 95.6023C63.8328 86.4 67.3627 77.5126 71.9877 69.2725C95.123 73.0292 116.752 88.0941 122.809 111.512H122.814ZM188.924 37.8247C193.446 42.3184 197.192 47.5771 199.886 53.3426C202.971 59.9398 204.766 67.7422 202.658 74.8947C200.948 80.6909 196.336 85.2869 190.384 86.7353C184.214 88.24 178.576 85.2434 175.951 79.5623C173.118 73.4258 173.578 65.9663 174.861 59.515C176.298 52.296 179.209 45.425 182.985 39.117C183.846 37.6789 184.757 36.2637 185.708 34.8793C186.811 35.8159 187.885 36.7934 188.919 37.8247H188.924ZM251.463 15.8914C250.787 18.9059 248.373 21.1655 245.473 22.0995C239.269 24.093 233.482 18.9136 234.187 12.5928C234.883 6.35389 242.514 3.3496 247.679 6.48696C247.974 6.66609 248.26 6.53046 248.399 6.30271C248.72 6.65073 249.028 7.02691 249.324 7.42612C251.101 9.83671 252.131 12.9127 251.466 15.8939L251.463 15.8914Z" fill="white"/>
</g>
</svg>
