<svg width="87" height="68" viewBox="0 0 87 68" fill="none" xmlns="http://www.w3.org/2000/svg">
<path d="M44.3753 32.8918C44.1109 32.6656 43.8627 32.4527 43.6203 32.236C43.3807 32.0202 43.1411 31.8035 42.9015 31.5868C42.1818 30.9348 41.4392 30.2618 40.6785 29.6298C39.661 28.7831 38.2569 27.8609 36.4195 28.2561C35.5662 28.4384 34.6928 28.8604 33.7488 29.5477C31.4484 31.2193 30.1178 33.4608 30.0997 35.6975C30.0968 36.0354 30.1236 36.38 30.1808 36.7256C30.345 37.7251 30.7679 38.7638 31.4055 39.7318C32.6568 41.6334 34.6212 43.1073 36.7975 43.7746C37.7281 44.0591 38.7094 44.2014 39.6915 44.2014C41.0068 44.2014 42.325 43.9484 43.5286 43.4472C44.8802 42.884 45.9798 42.0573 46.7062 41.0558C47.5509 39.8941 47.8927 38.4449 47.6206 37.181C47.2226 35.3261 45.7097 34.0326 44.3753 32.8918ZM46.3063 40.7618C45.6324 41.6888 44.6053 42.4582 43.3377 42.9861C41.3419 43.8186 39.011 43.9322 36.9426 43.2983C34.8751 42.6644 33.0062 41.2649 31.8178 39.4568C31.2193 38.5471 30.8223 37.5743 30.6695 36.6426C30.617 36.3256 30.5913 36.0077 30.5951 35.6984C30.6123 33.6517 31.9009 31.5009 34.0399 29.9449C34.9286 29.3005 35.7408 28.9053 36.5235 28.7372C36.7803 28.6819 37.0342 28.6542 37.2862 28.6542C38.2817 28.6542 39.2591 29.0895 40.3626 30.0079C41.1147 30.6341 41.8544 31.3043 42.5703 31.9525C42.8099 32.1692 43.0504 32.3868 43.29 32.6016C43.5363 32.824 43.7997 33.0484 44.0546 33.267C45.3909 34.4097 46.773 35.5925 47.1357 37.2812C47.3791 38.4115 47.0689 39.7117 46.3063 40.7618ZM48.8214 30.215L48.3909 29.8246C47.0689 28.6256 45.5045 27.2175 43.9219 25.8657C43.7759 25.7407 43.6289 25.6185 43.4819 25.4972C41.7265 24.0529 39.9359 23.2901 37.8493 23.1011C34.7109 22.8157 31.5248 23.9889 29.1089 26.3201C25.9629 29.3549 24.177 33.1133 24.2085 36.633C24.2133 37.1724 24.2581 37.7204 24.3421 38.2616C24.4328 38.8506 24.5731 39.4425 24.7564 40.021C25.0933 41.0835 25.5858 42.1155 26.2225 43.0883C27.2448 44.6558 28.5983 45.9197 30.135 46.7426C32.0631 47.7746 34.205 47.8786 36.2773 47.9798C37.1945 48.0247 38.1433 48.0705 39.0654 48.1965C39.7622 48.292 40.4828 48.3387 41.2216 48.3387C43.5076 48.3387 45.9569 47.8901 48.3107 47.0252C49.9992 46.4037 51.5723 45.4787 52.9859 44.2758C54.0034 43.409 55.0829 42.3293 55.3712 40.8955C55.6413 39.5485 55.1603 38.2301 54.6534 37.1189C53.3868 34.3448 51.0654 32.2455 48.8214 30.215ZM54.8854 40.7971C54.6286 42.083 53.6178 43.0863 52.6642 43.8987C51.2964 45.0634 49.7749 45.9588 48.1399 46.5593C45.1017 47.6772 41.9022 48.0839 39.1322 47.7058C38.1891 47.5769 37.2299 47.5292 36.3021 47.4853C34.1926 47.3822 32.1987 47.2858 30.3698 46.3054C28.9056 45.5226 27.6161 44.3159 26.6377 42.8171C26.0268 41.8816 25.5524 40.8897 25.2298 39.8711C25.0542 39.3155 24.9196 38.7494 24.8318 38.1862C24.7507 37.6688 24.7077 37.1447 24.7029 36.6292C24.6733 33.246 26.4029 29.6184 29.4516 26.6781C31.5362 24.6667 34.2146 23.5555 36.9149 23.5555C37.2108 23.5555 37.5076 23.5689 37.8035 23.5965C39.7879 23.777 41.4917 24.5035 43.1659 25.8819C43.311 26.0013 43.4561 26.1225 43.5993 26.2457C45.178 27.5926 46.7387 28.9979 48.0568 30.195L48.4883 30.5845C50.696 32.5806 52.9773 34.6455 54.2 37.327C54.6754 38.3628 55.1278 39.5895 54.8854 40.7971ZM53.1348 27.2165C51.3327 25.5717 49.3702 23.8352 47.1357 21.9059C46.942 21.7388 46.7472 21.5718 46.5535 21.4066C44.193 19.4048 41.8564 18.2449 39.199 17.7571C33.9626 16.7957 28.4522 18.7117 24.4605 22.8806C20.4554 27.0666 18.2056 32.3467 18.2896 37.37C18.302 38.1156 18.365 38.865 18.4767 39.6029C18.5998 40.4181 18.7859 41.2344 19.0293 42.0248C19.4818 43.4997 20.1509 44.9221 21.0157 46.25C22.603 48.692 24.7411 50.5602 27.1971 51.6532C29.3943 52.6317 31.7205 52.9267 34.0771 52.9267C35.8907 52.9267 37.7214 52.752 39.5245 52.5802C40.1144 52.5248 40.7253 52.4666 41.3228 52.416C45.5837 52.0542 49.4084 51.6532 53.0718 50.4046C55.2366 49.6666 57.3194 48.6127 59.2589 47.2724C60.8424 46.1784 62.7133 44.6424 63.1275 42.4544C63.4998 40.4945 62.6436 38.6225 61.6643 36.8936C59.6121 33.2689 56.5872 30.3668 53.1348 27.2165ZM62.6398 42.3599C62.2589 44.3713 60.4826 45.8233 58.9773 46.8638C57.074 48.1784 55.0343 49.2113 52.9105 49.9358C49.3005 51.1654 45.5073 51.5625 41.2789 51.9215C40.6794 51.9721 40.0676 52.0303 39.4768 52.0876C35.3905 52.4771 31.1668 52.8799 27.3975 51.2017C25.0294 50.1468 22.9657 48.3416 21.4299 45.9798C20.59 44.6911 19.9409 43.3107 19.5018 41.8787C19.2651 41.1112 19.0866 40.3208 18.9663 39.5284C18.8575 38.8134 18.7964 38.086 18.785 37.3633C18.7029 32.4699 20.9011 27.3168 24.8175 23.2252C28.6947 19.1756 34.037 17.3141 39.1102 18.2449C41.6788 18.7165 43.9429 19.841 46.2347 21.7856C46.4275 21.9498 46.6213 22.115 46.8141 22.282C49.0447 24.2085 51.0034 25.943 52.8026 27.5841C56.2236 30.7048 59.2198 33.5782 61.2357 37.138C62.1654 38.7838 62.9815 40.5575 62.6398 42.3599ZM57.8739 24.4319C55.3292 22.1035 52.6814 19.8009 50.3457 17.7685C50.1033 17.5585 49.8628 17.3475 49.6203 17.1394C46.5668 14.5046 43.7644 12.9925 40.5344 12.2374C36.8328 11.3725 32.9241 11.6111 29.2311 12.9295C25.7271 14.181 22.4694 16.3709 19.8111 19.2644C14.9402 24.5655 12.2266 31.3692 12.3669 37.9323C12.386 38.8831 12.4681 39.8368 12.6065 40.7685C12.7621 41.8119 12.995 42.8496 13.2966 43.8529C13.8655 45.7412 14.7083 47.5521 15.8031 49.2361C17.9231 52.5 20.9212 55.0384 24.2457 56.3834C26.7494 57.3973 29.3609 57.7505 32.0135 57.7505C35.1481 57.7505 38.34 57.256 41.4736 56.771C42.1637 56.6641 42.8509 56.5562 43.5344 56.456C43.9171 56.3997 44.2989 56.3433 44.6836 56.288C49.0514 55.6493 53.5662 54.9887 57.8281 53.6083C60.5589 52.7253 63.1523 51.5396 65.5348 50.0857C67.5631 48.8485 70.3226 46.8552 70.8781 43.8376C71.362 41.2153 70.0362 38.6578 68.6761 36.5003C65.6713 31.7358 61.5249 27.7721 57.8739 24.4319ZM70.3923 43.746C69.873 46.5688 67.2243 48.4743 65.278 49.6609C62.9271 51.0938 60.37 52.2632 57.6763 53.1358C53.4536 54.5038 48.9588 55.1606 44.612 55.7963C44.2273 55.8527 43.8455 55.909 43.4628 55.9653C42.7765 56.0665 42.0883 56.1725 41.3982 56.2803C35.6797 57.1662 29.7675 58.0836 24.4318 55.9243C21.2008 54.6164 18.2839 52.1458 16.2183 48.9669C15.1502 47.3221 14.3265 45.5531 13.771 43.7107C13.476 42.7303 13.2498 41.7164 13.0971 40.6969C12.9615 39.7862 12.8823 38.8516 12.8623 37.9227C12.7248 31.4866 15.3917 24.8089 20.1767 19.6005C25.6756 13.6149 33.2448 11.0431 40.4236 12.7204C43.5716 13.4564 46.3101 14.9361 49.2986 17.5165C49.5401 17.7236 49.7816 17.9346 50.0231 18.1437C52.3578 20.1732 55.0028 22.4739 57.5427 24.7975C61.1698 28.1167 65.2876 32.0527 68.2589 36.7638C69.5666 38.8382 70.8437 41.2907 70.3923 43.746ZM62.6149 21.6338C60.0951 19.3217 57.474 17.0344 54.9388 14.8244C54.4778 14.4225 54.0177 14.0197 53.5576 13.6178L52.6881 12.8579C48.955 9.59685 45.6171 7.69808 41.8678 6.70335C37.1239 5.44324 32.0813 5.67712 27.2839 7.38019C22.75 8.98874 18.5597 11.8421 15.1655 15.6311C12.4223 18.6916 10.1763 22.3574 8.67009 26.2294C7.11711 30.2227 6.34778 34.4584 6.44418 38.4783C6.47282 39.6353 6.57113 40.7933 6.73817 41.9207C6.92525 43.1923 7.20397 44.4534 7.56477 45.6667C8.24915 47.9674 9.26761 50.1678 10.5906 52.2079C13.2641 56.3271 17.064 59.4831 21.2915 61.0974C24.1837 62.201 27.1818 62.6105 30.2267 62.6105C34.6871 62.6105 39.2477 61.7303 43.7167 60.8683C44.3944 60.7366 45.0702 60.6067 45.7431 60.4807C46.6661 60.306 47.5929 60.1371 48.5236 59.9662C53.1863 59.1108 58.0095 58.2259 62.5882 56.7968C65.9452 55.7486 69.0502 54.4312 71.8164 52.8809C75.8797 50.6041 78.1085 48.0944 78.6316 45.2075C79.2272 41.9131 77.4804 38.7523 75.6907 36.0965C71.8536 30.4002 66.9284 25.5889 62.6149 21.6338ZM78.1448 45.1188C77.6494 47.85 75.5017 50.2471 71.5758 52.4475C68.8393 53.9816 65.7658 55.2856 62.4412 56.3242C57.8911 57.7447 53.0833 58.6259 48.4339 59.4793C47.5032 59.6502 46.5754 59.8211 45.6515 59.9948C44.9776 60.1218 44.3028 60.2516 43.6241 60.3834C36.1732 61.821 28.4685 63.3074 21.4691 60.6344C17.3399 59.0593 13.6259 55.9701 11.0077 51.9377C9.70955 49.9397 8.71114 47.7812 8.04107 45.5264C7.686 44.3341 7.41301 43.0968 7.22879 41.8482C7.06557 40.7399 6.96725 39.6029 6.94053 38.4659C6.74963 30.5921 9.96249 22.1789 15.5349 15.9604C21.0529 9.80209 28.4284 6.40551 35.7666 6.40551C37.7739 6.40551 39.7784 6.65848 41.7418 7.18067C45.4148 8.1563 48.6897 10.0226 52.3626 13.2302L53.2322 13.9901C53.6922 14.392 54.1533 14.7948 54.6143 15.1967C57.1475 17.4058 59.7658 19.6902 62.2828 21.9985C66.5752 25.9344 71.4756 30.72 75.2812 36.3734C77.0127 38.9471 78.7098 41.999 78.1448 45.1188ZM82.7063 35.6937C76.1708 26.407 67.5268 18.8616 59.1673 11.5634C58.0476 10.5839 56.8879 9.57298 55.754 8.57443C52.5888 5.78786 48.6219 2.72826 43.1974 1.16648C37.4198 -0.496494 31.2442 -0.270246 25.3358 1.81945C19.771 3.78886 14.6472 7.30764 10.519 11.9949C1.80624 21.8887 -1.60326 35.8168 1.83487 47.4786C2.63475 50.1917 3.82788 52.7816 5.38086 55.1768C8.609 60.1514 13.2097 63.926 18.3373 65.8076C21.6485 67.0228 25.0676 67.4877 28.5391 67.4877C34.3578 67.4877 40.3206 66.1789 46.1574 64.8969C46.7558 64.7651 47.3534 64.6343 47.948 64.5045C49.458 64.1761 51.0015 63.8544 52.4943 63.5422C61.1784 61.7303 70.1584 59.8573 78.1009 55.6713C82.9765 53.1014 85.7646 50.0418 86.3841 46.5755C87.098 42.5785 84.7938 38.6597 82.7063 35.6937ZM85.8963 46.4887C85.3055 49.7965 82.6052 52.7386 77.8699 55.2331C69.9895 59.3867 61.0438 61.253 52.3922 63.0592C50.8984 63.3704 49.355 63.6921 47.843 64.0215C47.2484 64.1503 46.6499 64.283 46.0514 64.4138C36.8013 66.4462 27.2362 68.5464 18.5063 65.3436C13.4798 63.4993 8.96503 59.7924 5.79512 54.9085C4.26791 52.5544 3.09482 50.0074 2.30831 47.3402C-1.0821 35.8369 2.28636 22.0911 10.8903 12.3233C19.5314 2.51156 31.8579 -1.58096 43.06 1.64284C47.2999 2.86286 50.9986 5.04706 55.4275 8.94674C56.5624 9.9472 57.7212 10.9582 58.8427 11.9367C67.1794 19.2148 75.8014 26.7421 82.3016 35.9791C84.3338 38.8669 86.5788 42.6711 85.8963 46.4887Z" fill="#5E5E5E"/>
</svg>
