<svg width="227" height="227" viewBox="0 0 227 227" fill="none" xmlns="http://www.w3.org/2000/svg">
<path d="M218.894 52.7928C219.523 53.8817 220.135 54.9812 220.73 56.091C219.649 55.3836 218.926 54.1736 218.894 52.7928Z" fill="white"/>
<path d="M196.699 24.8075C198.588 26.5801 200.42 28.4124 202.193 30.3013C201.507 31.5681 200.167 32.4286 198.625 32.4286C196.386 32.4286 194.571 30.6137 194.571 28.375C194.571 26.8335 195.432 25.4929 196.699 24.8075Z" fill="white"/>
<path d="M170.909 6.26993C172.019 6.86535 173.118 7.47749 174.207 8.10601C172.826 8.07379 171.616 7.35114 170.909 6.26993Z" fill="white"/>
<path d="M52.7928 8.10601C53.8817 7.47749 54.9812 6.86535 56.091 6.26993C55.3836 7.35114 54.1736 8.07379 52.7928 8.10601Z" fill="white"/>
<path d="M24.8075 30.3013C26.5801 28.4124 28.4124 26.5801 30.3013 24.8075C31.5681 25.4929 32.4286 26.8335 32.4286 28.375C32.4286 30.6137 30.6137 32.4286 28.375 32.4286C26.8335 32.4286 25.4929 31.5681 24.8075 30.3013Z" fill="white"/>
<path d="M6.26993 56.091C6.86535 54.9812 7.47749 53.8817 8.10601 52.7928C8.07379 54.1736 7.35114 55.3836 6.26993 56.091Z" fill="white"/>
<path d="M220.73 170.909C220.135 172.019 219.523 173.118 218.894 174.207C218.926 172.826 219.649 171.616 220.73 170.909Z" fill="white"/>
<path d="M202.193 196.699C201.507 195.432 200.167 194.571 198.625 194.571C196.386 194.571 194.571 196.386 194.571 198.625C194.571 200.167 195.432 201.507 196.699 202.193C198.588 200.42 200.42 198.588 202.193 196.699Z" fill="white"/>
<path d="M174.207 218.894C172.826 218.926 171.616 219.649 170.909 220.73C172.019 220.135 173.118 219.523 174.207 218.894Z" fill="white"/>
<path d="M56.091 220.73C55.3836 219.649 54.1736 218.926 52.7928 218.894C53.8817 219.523 54.9812 220.135 56.091 220.73Z" fill="white"/>
<path d="M30.3013 202.193C31.5681 201.507 32.4286 200.167 32.4286 198.625C32.4286 196.386 30.6137 194.571 28.375 194.571C26.8335 194.571 25.4929 195.432 24.8075 196.699C26.5801 198.588 28.4124 200.42 30.3013 202.193Z" fill="white"/>
<path d="M8.10601 174.207C8.07379 172.826 7.35114 171.616 6.26993 170.909C6.86535 172.019 7.47749 173.118 8.10601 174.207Z" fill="white"/>
<path d="M81.0714 4.05357C81.0714 6.2923 79.2566 8.10714 77.0179 8.10714C74.7791 8.10714 72.9643 6.2923 72.9643 4.05357C72.9643 1.81485 74.7791 0 77.0179 0C79.2566 0 81.0714 1.81485 81.0714 4.05357Z" fill="white"/>
<path d="M105.393 4.05357C105.393 6.2923 103.578 8.10714 101.339 8.10714C99.1006 8.10714 97.2857 6.2923 97.2857 4.05357C97.2857 1.81485 99.1006 0 101.339 0C103.578 0 105.393 1.81485 105.393 4.05357Z" fill="white"/>
<path d="M129.714 4.05357C129.714 6.2923 127.899 8.10714 125.661 8.10714C123.422 8.10714 121.607 6.2923 121.607 4.05357C121.607 1.81485 123.422 0 125.661 0C127.899 0 129.714 1.81485 129.714 4.05357Z" fill="white"/>
<path d="M154.036 4.05357C154.036 6.2923 152.221 8.10714 149.982 8.10714C147.743 8.10714 145.929 6.2923 145.929 4.05357C145.929 1.81485 147.743 0 149.982 0C152.221 0 154.036 1.81485 154.036 4.05357Z" fill="white"/>
<path d="M56.75 28.375C56.75 30.6137 54.9352 32.4286 52.6964 32.4286C50.4577 32.4286 48.6429 30.6137 48.6429 28.375C48.6429 26.1363 50.4577 24.3214 52.6964 24.3214C54.9352 24.3214 56.75 26.1363 56.75 28.375Z" fill="white"/>
<path d="M81.0714 28.375C81.0714 30.6137 79.2566 32.4286 77.0179 32.4286C74.7791 32.4286 72.9643 30.6137 72.9643 28.375C72.9643 26.1363 74.7791 24.3214 77.0179 24.3214C79.2566 24.3214 81.0714 26.1363 81.0714 28.375Z" fill="white"/>
<path d="M105.393 28.375C105.393 30.6137 103.578 32.4286 101.339 32.4286C99.1006 32.4286 97.2857 30.6137 97.2857 28.375C97.2857 26.1363 99.1006 24.3214 101.339 24.3214C103.578 24.3214 105.393 26.1363 105.393 28.375Z" fill="white"/>
<path d="M129.714 28.375C129.714 30.6137 127.899 32.4286 125.661 32.4286C123.422 32.4286 121.607 30.6137 121.607 28.375C121.607 26.1363 123.422 24.3214 125.661 24.3214C127.899 24.3214 129.714 26.1363 129.714 28.375Z" fill="white"/>
<path d="M154.036 28.375C154.036 30.6137 152.221 32.4286 149.982 32.4286C147.743 32.4286 145.929 30.6137 145.929 28.375C145.929 26.1363 147.743 24.3214 149.982 24.3214C152.221 24.3214 154.036 26.1363 154.036 28.375Z" fill="white"/>
<path d="M178.357 28.375C178.357 30.6137 176.542 32.4286 174.304 32.4286C172.065 32.4286 170.25 30.6137 170.25 28.375C170.25 26.1363 172.065 24.3214 174.304 24.3214C176.542 24.3214 178.357 26.1363 178.357 28.375Z" fill="white"/>
<path d="M32.4286 52.6964C32.4286 54.9352 30.6137 56.75 28.375 56.75C26.1363 56.75 24.3214 54.9352 24.3214 52.6964C24.3214 50.4577 26.1363 48.6429 28.375 48.6429C30.6137 48.6429 32.4286 50.4577 32.4286 52.6964Z" fill="white"/>
<path d="M56.75 52.6964C56.75 54.9352 54.9352 56.75 52.6964 56.75C50.4577 56.75 48.6429 54.9352 48.6429 52.6964C48.6429 50.4577 50.4577 48.6429 52.6964 48.6429C54.9352 48.6429 56.75 50.4577 56.75 52.6964Z" fill="white"/>
<path d="M81.0714 52.6964C81.0714 54.9352 79.2566 56.75 77.0179 56.75C74.7791 56.75 72.9643 54.9352 72.9643 52.6964C72.9643 50.4577 74.7791 48.6429 77.0179 48.6429C79.2566 48.6429 81.0714 50.4577 81.0714 52.6964Z" fill="white"/>
<path d="M105.393 52.6964C105.393 54.9352 103.578 56.75 101.339 56.75C99.1006 56.75 97.2857 54.9352 97.2857 52.6964C97.2857 50.4577 99.1006 48.6429 101.339 48.6429C103.578 48.6429 105.393 50.4577 105.393 52.6964Z" fill="white"/>
<path d="M129.714 52.6964C129.714 54.9352 127.899 56.75 125.661 56.75C123.422 56.75 121.607 54.9352 121.607 52.6964C121.607 50.4577 123.422 48.6429 125.661 48.6429C127.899 48.6429 129.714 50.4577 129.714 52.6964Z" fill="white"/>
<path d="M154.036 52.6964C154.036 54.9352 152.221 56.75 149.982 56.75C147.743 56.75 145.929 54.9352 145.929 52.6964C145.929 50.4577 147.743 48.6429 149.982 48.6429C152.221 48.6429 154.036 50.4577 154.036 52.6964Z" fill="white"/>
<path d="M178.357 52.6964C178.357 54.9352 176.542 56.75 174.304 56.75C172.065 56.75 170.25 54.9352 170.25 52.6964C170.25 50.4577 172.065 48.6429 174.304 48.6429C176.542 48.6429 178.357 50.4577 178.357 52.6964Z" fill="white"/>
<path d="M202.679 52.6964C202.679 54.9352 200.864 56.75 198.625 56.75C196.386 56.75 194.571 54.9352 194.571 52.6964C194.571 50.4577 196.386 48.6429 198.625 48.6429C200.864 48.6429 202.679 50.4577 202.679 52.6964Z" fill="white"/>
<path d="M8.10714 77.0179C8.10714 79.2566 6.2923 81.0714 4.05357 81.0714C1.81485 81.0714 0 79.2566 0 77.0179C0 74.7791 1.81485 72.9643 4.05357 72.9643C6.2923 72.9643 8.10714 74.7791 8.10714 77.0179Z" fill="white"/>
<path d="M32.4286 77.0179C32.4286 79.2566 30.6137 81.0714 28.375 81.0714C26.1363 81.0714 24.3214 79.2566 24.3214 77.0179C24.3214 74.7791 26.1363 72.9643 28.375 72.9643C30.6137 72.9643 32.4286 74.7791 32.4286 77.0179Z" fill="white"/>
<path d="M56.75 77.0179C56.75 79.2566 54.9352 81.0714 52.6964 81.0714C50.4577 81.0714 48.6429 79.2566 48.6429 77.0179C48.6429 74.7791 50.4577 72.9643 52.6964 72.9643C54.9352 72.9643 56.75 74.7791 56.75 77.0179Z" fill="white"/>
<path d="M81.0714 77.0179C81.0714 79.2566 79.2566 81.0714 77.0179 81.0714C74.7791 81.0714 72.9643 79.2566 72.9643 77.0179C72.9643 74.7791 74.7791 72.9643 77.0179 72.9643C79.2566 72.9643 81.0714 74.7791 81.0714 77.0179Z" fill="white"/>
<path d="M105.393 77.0179C105.393 79.2566 103.578 81.0714 101.339 81.0714C99.1006 81.0714 97.2857 79.2566 97.2857 77.0179C97.2857 74.7791 99.1006 72.9643 101.339 72.9643C103.578 72.9643 105.393 74.7791 105.393 77.0179Z" fill="white"/>
<path d="M129.714 77.0179C129.714 79.2566 127.899 81.0714 125.661 81.0714C123.422 81.0714 121.607 79.2566 121.607 77.0179C121.607 74.7791 123.422 72.9643 125.661 72.9643C127.899 72.9643 129.714 74.7791 129.714 77.0179Z" fill="white"/>
<path d="M154.036 77.0179C154.036 79.2566 152.221 81.0714 149.982 81.0714C147.743 81.0714 145.929 79.2566 145.929 77.0179C145.929 74.7791 147.743 72.9643 149.982 72.9643C152.221 72.9643 154.036 74.7791 154.036 77.0179Z" fill="white"/>
<path d="M178.357 77.0179C178.357 79.2566 176.542 81.0714 174.304 81.0714C172.065 81.0714 170.25 79.2566 170.25 77.0179C170.25 74.7791 172.065 72.9643 174.304 72.9643C176.542 72.9643 178.357 74.7791 178.357 77.0179Z" fill="white"/>
<path d="M202.679 77.0179C202.679 79.2566 200.864 81.0714 198.625 81.0714C196.386 81.0714 194.571 79.2566 194.571 77.0179C194.571 74.7791 196.386 72.9643 198.625 72.9643C200.864 72.9643 202.679 74.7791 202.679 77.0179Z" fill="white"/>
<path d="M227 77.0179C227 79.2566 225.185 81.0714 222.946 81.0714C220.708 81.0714 218.893 79.2566 218.893 77.0179C218.893 74.7791 220.708 72.9643 222.946 72.9643C225.185 72.9643 227 74.7791 227 77.0179Z" fill="white"/>
<path d="M8.10714 101.339C8.10714 103.578 6.2923 105.393 4.05357 105.393C1.81485 105.393 0 103.578 0 101.339C0 99.1006 1.81485 97.2857 4.05357 97.2857C6.2923 97.2857 8.10714 99.1006 8.10714 101.339Z" fill="white"/>
<path d="M32.4286 101.339C32.4286 103.578 30.6137 105.393 28.375 105.393C26.1363 105.393 24.3214 103.578 24.3214 101.339C24.3214 99.1006 26.1363 97.2857 28.375 97.2857C30.6137 97.2857 32.4286 99.1006 32.4286 101.339Z" fill="white"/>
<path d="M56.75 101.339C56.75 103.578 54.9352 105.393 52.6964 105.393C50.4577 105.393 48.6429 103.578 48.6429 101.339C48.6429 99.1006 50.4577 97.2857 52.6964 97.2857C54.9352 97.2857 56.75 99.1006 56.75 101.339Z" fill="white"/>
<path d="M81.0714 101.339C81.0714 103.578 79.2566 105.393 77.0179 105.393C74.7791 105.393 72.9643 103.578 72.9643 101.339C72.9643 99.1006 74.7791 97.2857 77.0179 97.2857C79.2566 97.2857 81.0714 99.1006 81.0714 101.339Z" fill="white"/>
<path d="M105.393 101.339C105.393 103.578 103.578 105.393 101.339 105.393C99.1006 105.393 97.2857 103.578 97.2857 101.339C97.2857 99.1006 99.1006 97.2857 101.339 97.2857C103.578 97.2857 105.393 99.1006 105.393 101.339Z" fill="white"/>
<path d="M129.714 101.339C129.714 103.578 127.899 105.393 125.661 105.393C123.422 105.393 121.607 103.578 121.607 101.339C121.607 99.1006 123.422 97.2857 125.661 97.2857C127.899 97.2857 129.714 99.1006 129.714 101.339Z" fill="white"/>
<path d="M154.036 101.339C154.036 103.578 152.221 105.393 149.982 105.393C147.743 105.393 145.929 103.578 145.929 101.339C145.929 99.1006 147.743 97.2857 149.982 97.2857C152.221 97.2857 154.036 99.1006 154.036 101.339Z" fill="white"/>
<path d="M178.357 101.339C178.357 103.578 176.542 105.393 174.304 105.393C172.065 105.393 170.25 103.578 170.25 101.339C170.25 99.1006 172.065 97.2857 174.304 97.2857C176.542 97.2857 178.357 99.1006 178.357 101.339Z" fill="white"/>
<path d="M202.679 101.339C202.679 103.578 200.864 105.393 198.625 105.393C196.386 105.393 194.571 103.578 194.571 101.339C194.571 99.1006 196.386 97.2857 198.625 97.2857C200.864 97.2857 202.679 99.1006 202.679 101.339Z" fill="white"/>
<path d="M227 101.339C227 103.578 225.185 105.393 222.946 105.393C220.708 105.393 218.893 103.578 218.893 101.339C218.893 99.1006 220.708 97.2857 222.946 97.2857C225.185 97.2857 227 99.1006 227 101.339Z" fill="white"/>
<path d="M8.10714 125.661C8.10714 127.899 6.2923 129.714 4.05357 129.714C1.81485 129.714 0 127.899 0 125.661C0 123.422 1.81485 121.607 4.05357 121.607C6.2923 121.607 8.10714 123.422 8.10714 125.661Z" fill="white"/>
<path d="M32.4286 125.661C32.4286 127.899 30.6137 129.714 28.375 129.714C26.1363 129.714 24.3214 127.899 24.3214 125.661C24.3214 123.422 26.1363 121.607 28.375 121.607C30.6137 121.607 32.4286 123.422 32.4286 125.661Z" fill="white"/>
<path d="M56.75 125.661C56.75 127.899 54.9352 129.714 52.6964 129.714C50.4577 129.714 48.6429 127.899 48.6429 125.661C48.6429 123.422 50.4577 121.607 52.6964 121.607C54.9352 121.607 56.75 123.422 56.75 125.661Z" fill="white"/>
<path d="M81.0714 125.661C81.0714 127.899 79.2566 129.714 77.0179 129.714C74.7791 129.714 72.9643 127.899 72.9643 125.661C72.9643 123.422 74.7791 121.607 77.0179 121.607C79.2566 121.607 81.0714 123.422 81.0714 125.661Z" fill="white"/>
<path d="M105.393 125.661C105.393 127.899 103.578 129.714 101.339 129.714C99.1006 129.714 97.2857 127.899 97.2857 125.661C97.2857 123.422 99.1006 121.607 101.339 121.607C103.578 121.607 105.393 123.422 105.393 125.661Z" fill="white"/>
<path d="M129.714 125.661C129.714 127.899 127.899 129.714 125.661 129.714C123.422 129.714 121.607 127.899 121.607 125.661C121.607 123.422 123.422 121.607 125.661 121.607C127.899 121.607 129.714 123.422 129.714 125.661Z" fill="white"/>
<path d="M154.036 125.661C154.036 127.899 152.221 129.714 149.982 129.714C147.743 129.714 145.929 127.899 145.929 125.661C145.929 123.422 147.743 121.607 149.982 121.607C152.221 121.607 154.036 123.422 154.036 125.661Z" fill="white"/>
<path d="M178.357 125.661C178.357 127.899 176.542 129.714 174.304 129.714C172.065 129.714 170.25 127.899 170.25 125.661C170.25 123.422 172.065 121.607 174.304 121.607C176.542 121.607 178.357 123.422 178.357 125.661Z" fill="white"/>
<path d="M202.679 125.661C202.679 127.899 200.864 129.714 198.625 129.714C196.386 129.714 194.571 127.899 194.571 125.661C194.571 123.422 196.386 121.607 198.625 121.607C200.864 121.607 202.679 123.422 202.679 125.661Z" fill="white"/>
<path d="M227 125.661C227 127.899 225.185 129.714 222.946 129.714C220.708 129.714 218.893 127.899 218.893 125.661C218.893 123.422 220.708 121.607 222.946 121.607C225.185 121.607 227 123.422 227 125.661Z" fill="white"/>
<path d="M8.10714 149.982C8.10714 152.221 6.2923 154.036 4.05357 154.036C1.81485 154.036 0 152.221 0 149.982C0 147.743 1.81485 145.929 4.05357 145.929C6.2923 145.929 8.10714 147.743 8.10714 149.982Z" fill="white"/>
<path d="M32.4286 149.982C32.4286 152.221 30.6137 154.036 28.375 154.036C26.1363 154.036 24.3214 152.221 24.3214 149.982C24.3214 147.743 26.1363 145.929 28.375 145.929C30.6137 145.929 32.4286 147.743 32.4286 149.982Z" fill="white"/>
<path d="M56.75 149.982C56.75 152.221 54.9352 154.036 52.6964 154.036C50.4577 154.036 48.6429 152.221 48.6429 149.982C48.6429 147.743 50.4577 145.929 52.6964 145.929C54.9352 145.929 56.75 147.743 56.75 149.982Z" fill="white"/>
<path d="M81.0714 149.982C81.0714 152.221 79.2566 154.036 77.0179 154.036C74.7791 154.036 72.9643 152.221 72.9643 149.982C72.9643 147.743 74.7791 145.929 77.0179 145.929C79.2566 145.929 81.0714 147.743 81.0714 149.982Z" fill="white"/>
<path d="M105.393 149.982C105.393 152.221 103.578 154.036 101.339 154.036C99.1006 154.036 97.2857 152.221 97.2857 149.982C97.2857 147.743 99.1006 145.929 101.339 145.929C103.578 145.929 105.393 147.743 105.393 149.982Z" fill="white"/>
<path d="M129.714 149.982C129.714 152.221 127.899 154.036 125.661 154.036C123.422 154.036 121.607 152.221 121.607 149.982C121.607 147.743 123.422 145.929 125.661 145.929C127.899 145.929 129.714 147.743 129.714 149.982Z" fill="white"/>
<path d="M154.036 149.982C154.036 152.221 152.221 154.036 149.982 154.036C147.743 154.036 145.929 152.221 145.929 149.982C145.929 147.743 147.743 145.929 149.982 145.929C152.221 145.929 154.036 147.743 154.036 149.982Z" fill="white"/>
<path d="M178.357 149.982C178.357 152.221 176.542 154.036 174.304 154.036C172.065 154.036 170.25 152.221 170.25 149.982C170.25 147.743 172.065 145.929 174.304 145.929C176.542 145.929 178.357 147.743 178.357 149.982Z" fill="white"/>
<path d="M202.679 149.982C202.679 152.221 200.864 154.036 198.625 154.036C196.386 154.036 194.571 152.221 194.571 149.982C194.571 147.743 196.386 145.929 198.625 145.929C200.864 145.929 202.679 147.743 202.679 149.982Z" fill="white"/>
<path d="M227 149.982C227 152.221 225.185 154.036 222.946 154.036C220.708 154.036 218.893 152.221 218.893 149.982C218.893 147.743 220.708 145.929 222.946 145.929C225.185 145.929 227 147.743 227 149.982Z" fill="white"/>
<path d="M32.4286 174.304C32.4286 176.542 30.6137 178.357 28.375 178.357C26.1363 178.357 24.3214 176.542 24.3214 174.304C24.3214 172.065 26.1363 170.25 28.375 170.25C30.6137 170.25 32.4286 172.065 32.4286 174.304Z" fill="white"/>
<path d="M56.75 174.304C56.75 176.542 54.9352 178.357 52.6964 178.357C50.4577 178.357 48.6429 176.542 48.6429 174.304C48.6429 172.065 50.4577 170.25 52.6964 170.25C54.9352 170.25 56.75 172.065 56.75 174.304Z" fill="white"/>
<path d="M81.0714 174.304C81.0714 176.542 79.2566 178.357 77.0179 178.357C74.7791 178.357 72.9643 176.542 72.9643 174.304C72.9643 172.065 74.7791 170.25 77.0179 170.25C79.2566 170.25 81.0714 172.065 81.0714 174.304Z" fill="white"/>
<path d="M105.393 174.304C105.393 176.542 103.578 178.357 101.339 178.357C99.1006 178.357 97.2857 176.542 97.2857 174.304C97.2857 172.065 99.1006 170.25 101.339 170.25C103.578 170.25 105.393 172.065 105.393 174.304Z" fill="white"/>
<path d="M129.714 174.304C129.714 176.542 127.899 178.357 125.661 178.357C123.422 178.357 121.607 176.542 121.607 174.304C121.607 172.065 123.422 170.25 125.661 170.25C127.899 170.25 129.714 172.065 129.714 174.304Z" fill="white"/>
<path d="M154.036 174.304C154.036 176.542 152.221 178.357 149.982 178.357C147.743 178.357 145.929 176.542 145.929 174.304C145.929 172.065 147.743 170.25 149.982 170.25C152.221 170.25 154.036 172.065 154.036 174.304Z" fill="white"/>
<path d="M178.357 174.304C178.357 176.542 176.542 178.357 174.304 178.357C172.065 178.357 170.25 176.542 170.25 174.304C170.25 172.065 172.065 170.25 174.304 170.25C176.542 170.25 178.357 172.065 178.357 174.304Z" fill="white"/>
<path d="M202.679 174.304C202.679 176.542 200.864 178.357 198.625 178.357C196.386 178.357 194.571 176.542 194.571 174.304C194.571 172.065 196.386 170.25 198.625 170.25C200.864 170.25 202.679 172.065 202.679 174.304Z" fill="white"/>
<path d="M56.75 198.625C56.75 200.864 54.9352 202.679 52.6964 202.679C50.4577 202.679 48.6429 200.864 48.6429 198.625C48.6429 196.386 50.4577 194.571 52.6964 194.571C54.9352 194.571 56.75 196.386 56.75 198.625Z" fill="white"/>
<path d="M81.0714 198.625C81.0714 200.864 79.2566 202.679 77.0179 202.679C74.7791 202.679 72.9643 200.864 72.9643 198.625C72.9643 196.386 74.7791 194.571 77.0179 194.571C79.2566 194.571 81.0714 196.386 81.0714 198.625Z" fill="white"/>
<path d="M105.393 198.625C105.393 200.864 103.578 202.679 101.339 202.679C99.1006 202.679 97.2857 200.864 97.2857 198.625C97.2857 196.386 99.1006 194.571 101.339 194.571C103.578 194.571 105.393 196.386 105.393 198.625Z" fill="white"/>
<path d="M129.714 198.625C129.714 200.864 127.899 202.679 125.661 202.679C123.422 202.679 121.607 200.864 121.607 198.625C121.607 196.386 123.422 194.571 125.661 194.571C127.899 194.571 129.714 196.386 129.714 198.625Z" fill="white"/>
<path d="M154.036 198.625C154.036 200.864 152.221 202.679 149.982 202.679C147.743 202.679 145.929 200.864 145.929 198.625C145.929 196.386 147.743 194.571 149.982 194.571C152.221 194.571 154.036 196.386 154.036 198.625Z" fill="white"/>
<path d="M178.357 198.625C178.357 200.864 176.542 202.679 174.304 202.679C172.065 202.679 170.25 200.864 170.25 198.625C170.25 196.386 172.065 194.571 174.304 194.571C176.542 194.571 178.357 196.386 178.357 198.625Z" fill="white"/>
<path d="M81.0714 222.946C81.0714 225.185 79.2566 227 77.0179 227C74.7791 227 72.9643 225.185 72.9643 222.946C72.9643 220.708 74.7791 218.893 77.0179 218.893C79.2566 218.893 81.0714 220.708 81.0714 222.946Z" fill="white"/>
<path d="M105.393 222.946C105.393 225.185 103.578 227 101.339 227C99.1006 227 97.2857 225.185 97.2857 222.946C97.2857 220.708 99.1006 218.893 101.339 218.893C103.578 218.893 105.393 220.708 105.393 222.946Z" fill="white"/>
<path d="M129.714 222.946C129.714 225.185 127.899 227 125.661 227C123.422 227 121.607 225.185 121.607 222.946C121.607 220.708 123.422 218.893 125.661 218.893C127.899 218.893 129.714 220.708 129.714 222.946Z" fill="white"/>
<path d="M154.036 222.946C154.036 225.185 152.221 227 149.982 227C147.743 227 145.929 225.185 145.929 222.946C145.929 220.708 147.743 218.893 149.982 218.893C152.221 218.893 154.036 220.708 154.036 222.946Z" fill="white"/>
</svg>
