<svg width="66" height="99" viewBox="0 0 66 99" fill="none" xmlns="http://www.w3.org/2000/svg">
<rect width="66" height="99" fill="#DEDEDE"/>
<g id="Image version">
<g id="02_home_two" clip-path="url(#clip0_0_1)">
<rect width="1920" height="9866" transform="translate(-1498 -4521)" fill="#F8F8F8"/>
<g id="Achievement">
<g id="Elements">
<g id="Ornament 73">
<path d="M0 5.60633V8.65474L14.9904 0H9.71044L0 5.60633Z" fill="#121212"/>
<path d="M23.9999 0L0 13.8563V16.9047L29.2799 0H23.9999Z" fill="#121212"/>
<path d="M38.2893 0L0 22.1063V25.1547L43.5693 0H38.2893Z" fill="#121212"/>
<path d="M52.5787 0L0 30.3563V33.4047L57.8587 0H52.5787Z" fill="#121212"/>
<path d="M66 0.501211L0 38.6063V41.6547L66 3.54962V0.501211Z" fill="#121212"/>
<path d="M66 8.75121L0 46.8563V49.9047L66 11.7996V8.75121Z" fill="#121212"/>
<path d="M66 17.0012L0 55.1063V58.1547L66 20.0496V17.0012Z" fill="#121212"/>
<path d="M66 25.2512L0 63.3563V66.4047L66 28.2996V25.2512Z" fill="#121212"/>
<path d="M66 33.5012L0 71.6063V74.6547L66 36.5496V33.5012Z" fill="#121212"/>
<path d="M66 41.7512L0 79.8563V82.9047L66 44.7996V41.7512Z" fill="#121212"/>
<path d="M66 50.0012L0 88.1063V91.1547L66 53.0496V50.0012Z" fill="#121212"/>
<path d="M66 58.2512L0 96.3563V99H0.70102L66 61.2996V58.2512Z" fill="#121212"/>
<path d="M66 66.5012L9.71045 99H14.9904L66 69.5496V66.5012Z" fill="#121212"/>
<path d="M66 74.7512L23.9999 99H29.2799L66 77.7996V74.7512Z" fill="#121212"/>
<path d="M66 83.0012L38.2893 99H43.5693L66 86.0496V83.0012Z" fill="#121212"/>
<path d="M66 91.2512L52.5787 99H57.8587L66 94.2996V91.2512Z" fill="#121212"/>
</g>
</g>
</g>
</g>
</g>
<defs>
<clipPath id="clip0_0_1">
<rect width="1920" height="9866" fill="white" transform="translate(-1498 -4521)"/>
</clipPath>
</defs>
</svg>
